<svg width="1920" height="5241" viewBox="0 0 1920 5241" fill="none" xmlns="http://www.w3.org/2000/svg">
<path fill-rule="evenodd" clip-rule="evenodd" d="M616.26 615.86C588.995 568.306 530.778 565.312 481.177 555.371C436.765 546.471 390.368 537.744 351.204 562.741C311.479 588.096 281.936 634.339 277.473 685.386C273.424 731.696 312.588 763.92 329.914 806.249C351.455 858.877 343.122 934.15 389.612 959.358C438.055 985.626 497.217 955.803 540.813 920.606C580.937 888.21 597.305 834.438 610.537 780.991C624.192 725.837 643.904 664.073 616.26 615.86Z" stroke="white" stroke-width="2"/>
<path fill-rule="evenodd" clip-rule="evenodd" d="M1444.69 42.3159C1500.92 44.5417 1536.63 105.451 1573.37 153.135C1606.28 195.83 1640.16 240.76 1641.05 297.128C1641.96 354.304 1619.18 412.431 1578.02 446.321C1540.68 477.066 1490.79 453.306 1444.69 458.793C1387.37 465.616 1327.67 517.473 1279.62 481.836C1229.56 444.702 1221.41 364.075 1226.73 297.128C1231.63 235.511 1268.35 187.263 1306.57 142.574C1346.02 96.4567 1387.68 40.0591 1444.69 42.3159Z" stroke="white" stroke-width="2"/>
<path fill-rule="evenodd" clip-rule="evenodd" d="M1410.36 1043.05C1439.17 1021.23 1476.78 1037.05 1510.61 1045.85C1540.91 1053.73 1572.42 1062.33 1591.17 1090.08C1610.18 1118.24 1617.67 1156.53 1608.12 1190.23C1599.44 1220.8 1566.81 1229.29 1545.57 1250.84C1519.15 1277.62 1506.16 1327.84 1470.59 1329.66C1433.53 1331.56 1403.28 1294.66 1384.21 1259.09C1366.65 1226.35 1369.33 1187.3 1373.91 1149.41C1378.64 1110.31 1381.14 1065.18 1410.36 1043.05Z" stroke="white" stroke-width="2"/>
<path fill-rule="evenodd" clip-rule="evenodd" d="M1316.51 2256.01C1358.78 2259.71 1396.24 2280.56 1434.44 2301.18C1477.88 2324.64 1528.81 2339.37 1554.97 2384.76C1582.28 2432.16 1587.86 2493.61 1577.08 2548.72C1566.65 2602.1 1523.34 2635.94 1496.91 2681.86C1464.98 2737.31 1461.68 2826.49 1405.59 2846.6C1349.83 2866.6 1301.49 2795.78 1247.13 2771.43C1199.22 2749.97 1141.81 2752.57 1105.07 2711.99C1067.34 2670.31 1053.76 2609.03 1046.84 2550.18C1039.98 2491.84 1039.63 2429.51 1065.86 2378.52C1091.21 2329.23 1139.55 2302.19 1186.1 2279.44C1227.28 2259.31 1271.71 2252.09 1316.51 2256.01Z" stroke="white" stroke-width="2"/>
<path fill-rule="evenodd" clip-rule="evenodd" d="M334.599 2204.94C304.896 2201.52 276.591 2210.66 247.797 2219.55C215.05 2229.66 178.105 2232.65 154.852 2260.42C130.569 2289.41 119.757 2331.24 120.984 2370.99C122.171 2409.48 148.344 2439.1 161.463 2474.69C177.303 2517.67 169.505 2579.98 206.085 2601.89C242.447 2623.66 283.941 2581.4 324.351 2572.22C359.963 2564.13 399.442 2574.08 429.48 2551.14C460.328 2527.59 476.67 2487.02 488.12 2447.19C499.473 2407.7 506.767 2364.53 494.366 2325.44C482.379 2287.66 451.951 2262.06 422.281 2239.68C396.029 2219.88 366.074 2208.58 334.599 2204.94Z" stroke="white" stroke-width="2"/>
<path fill-rule="evenodd" clip-rule="evenodd" d="M355.581 4072.57C321.756 4075.53 291.785 4092.23 261.221 4108.74C226.46 4127.52 185.71 4139.32 164.782 4175.66C142.927 4213.61 138.468 4262.82 147.086 4306.95C155.432 4349.69 190.086 4376.79 211.239 4413.56C236.78 4457.96 239.426 4529.37 284.306 4545.48C328.919 4561.49 367.595 4504.78 411.09 4485.29C449.42 4468.1 495.36 4470.18 524.754 4437.69C554.941 4404.32 565.809 4355.25 571.346 4308.12C576.836 4261.4 577.117 4211.5 556.131 4170.67C535.844 4131.2 497.165 4109.55 459.921 4091.33C426.968 4075.21 391.424 4069.43 355.581 4072.57Z" stroke="white" stroke-width="2"/>
<path fill-rule="evenodd" clip-rule="evenodd" d="M1177.81 3431.22C1207.15 3422.25 1236.95 3426.17 1267.2 3429.75C1301.61 3433.81 1339.18 3429.94 1366.66 3453.52C1395.37 3478.15 1412.44 3518.18 1417.1 3558.36C1421.62 3597.27 1399.72 3631.9 1391.82 3670.12C1382.28 3716.26 1399.36 3777.44 1365.85 3806.26C1332.55 3834.91 1284.58 3800.16 1242.61 3798.45C1205.63 3796.95 1167.43 3814.29 1133.85 3796.83C1099.35 3778.9 1076.91 3741.16 1059.5 3703.26C1042.23 3665.68 1028.49 3623.65 1035.15 3582.06C1041.59 3541.86 1068.37 3510.46 1094.86 3482.45C1118.3 3457.66 1146.72 3440.73 1177.81 3431.22Z" stroke="white" stroke-width="2"/>
<path fill-rule="evenodd" clip-rule="evenodd" d="M1360.88 1675.21C1394.86 1725.45 1375.25 1794.93 1365.46 1856.97C1356.7 1912.51 1347 1970.31 1308.56 2006.69C1269.56 2043.59 1214.95 2060.53 1165.49 2046.18C1120.63 2033.17 1105.56 1974.84 1072.65 1938.27C1031.72 1892.8 958.123 1873.7 952.439 1809.47C946.516 1742.53 997.171 1684.53 1046.86 1646.86C1092.6 1612.19 1149.18 1613.61 1204.25 1618.58C1261.09 1623.71 1326.43 1624.27 1360.88 1675.21Z" stroke="white" stroke-width="2"/>
<path fill-rule="evenodd" clip-rule="evenodd" d="M590.419 1699.1C559.834 1707.11 532.652 1680.14 506.636 1660.46C483.341 1642.85 459.225 1624.19 451.391 1593.97C443.444 1563.31 448.132 1528.27 465.887 1503.27C481.995 1480.59 511.969 1485.23 536.091 1474.72C566.082 1461.67 591.481 1423.95 622.015 1435.29C653.831 1447.1 668.737 1489.2 674.605 1526.14C680.007 1560.14 666.517 1592.14 651.753 1622.48C636.516 1653.78 621.43 1690.98 590.419 1699.1Z" stroke="white" stroke-width="2"/>
<path fill-rule="evenodd" clip-rule="evenodd" d="M423.657 3286.13C462.281 3273.18 504.8 3290.89 538.798 3315.1C574.191 3340.31 605.381 3376.97 615.169 3422.54C624.643 3466.66 612.138 3514.39 589.726 3552.23C570.337 3584.97 534.681 3597.44 502.393 3612.97C477.106 3625.13 451.051 3629.02 423.657 3632.13C392.619 3635.65 358.67 3650.98 332.354 3632.28C305.826 3613.42 302.894 3572.71 293.111 3539.35C283.304 3505.9 263.924 3471.01 275.463 3438.25C286.917 3405.74 326.745 3402.15 349.781 3378.5C377.681 3349.86 387.357 3298.31 423.657 3286.13Z" stroke="white" stroke-width="2"/>
<path fill-rule="evenodd" clip-rule="evenodd" d="M1222.22 4037.61C1201.78 4028.12 1179.28 4041.09 1161.3 4058.82C1142.57 4077.28 1126.07 4104.12 1120.89 4137.49C1115.87 4169.8 1122.49 4204.75 1134.35 4232.46C1144.61 4256.43 1163.47 4265.56 1180.56 4276.93C1193.94 4285.84 1207.72 4288.68 1222.22 4290.96C1238.64 4293.54 1256.6 4304.76 1270.53 4291.07C1284.56 4277.26 1286.12 4247.45 1291.29 4223.02C1296.48 4198.53 1306.74 4172.98 1300.63 4149C1294.57 4125.19 1273.5 4122.56 1261.31 4105.24C1246.55 4084.27 1241.43 4046.52 1222.22 4037.61Z" stroke="white" stroke-width="2"/>
<path fill-rule="evenodd" clip-rule="evenodd" d="M1409.73 4833.88C1430.28 4824.71 1438.34 4797.84 1440.19 4771.08C1442.12 4743.22 1437.23 4711.09 1420.17 4683.13C1403.65 4656.06 1377.15 4636.18 1351.4 4625.58C1329.13 4616.42 1309.92 4624.62 1290.6 4629.81C1275.46 4633.88 1263.81 4642.61 1252.01 4652.3C1238.63 4663.29 1218.77 4669.27 1217.32 4689.97C1215.85 4710.83 1233.3 4733.4 1244.8 4754.96C1256.33 4776.56 1264.88 4802.89 1284.19 4815.31C1303.35 4827.63 1320.1 4813.06 1339.61 4815.94C1363.25 4819.44 1390.42 4842.49 1409.73 4833.88Z" stroke="white" stroke-width="2"/>
<g clip-path="url(#clip0_342_28)">
<path fill-rule="evenodd" clip-rule="evenodd" d="M228.241 5213.43C251.672 5204.1 260.852 5176.75 262.965 5149.52C265.165 5121.16 259.597 5088.46 240.143 5060C221.311 5032.46 191.097 5012.22 161.74 5001.44C136.342 4992.11 114.448 5000.46 92.416 5005.74C75.161 5009.88 61.8789 5018.77 48.4189 5028.64C33.1685 5039.81 10.5244 5045.91 8.8673 5066.97C7.19688 5088.2 27.0886 5111.17 40.1987 5133.11C53.3422 5155.1 63.0997 5181.89 85.1104 5194.53C106.959 5207.07 126.047 5192.24 148.296 5195.18C175.242 5198.73 206.219 5222.2 228.241 5213.43Z" stroke="white" stroke-opacity="0.11" stroke-width="2"/>
<path fill-rule="evenodd" clip-rule="evenodd" d="M199.54 5178.62C217.382 5171.52 224.371 5150.7 225.98 5129.96C227.655 5108.37 223.415 5083.47 208.603 5061.8C194.264 5040.82 171.258 5025.42 148.904 5017.21C129.566 5010.1 112.896 5016.46 96.1194 5020.48C82.981 5023.64 72.8677 5030.4 62.6188 5037.91C51.0067 5046.42 33.7649 5051.06 32.5032 5067.1C31.2313 5083.27 46.3774 5100.76 56.3597 5117.46C66.3676 5134.21 73.7972 5154.61 90.5568 5164.23C107.192 5173.78 121.727 5162.49 138.668 5164.72C159.186 5167.43 182.772 5185.3 199.54 5178.62Z" stroke="white" stroke-opacity="0.11" stroke-width="2"/>
<path fill-rule="evenodd" clip-rule="evenodd" d="M275.548 5236.32C308.373 5223.25 321.232 5184.94 324.192 5146.79C327.273 5107.07 319.473 5061.26 292.221 5021.4C265.841 4982.81 223.516 4954.46 182.391 4939.36C146.812 4926.29 116.143 4937.98 85.2792 4945.38C61.1076 4951.18 42.5014 4963.64 23.6459 4977.45C2.28251 4993.11 -29.4383 5001.65 -31.7597 5031.15C-34.0997 5060.89 -6.23441 5093.08 12.1307 5123.8C30.5427 5154.61 44.2116 5192.14 75.0452 5209.84C105.651 5227.42 132.391 5206.63 163.558 5210.75C201.306 5215.74 244.699 5248.6 275.548 5236.32Z" stroke="white" stroke-opacity="0.11" stroke-width="2"/>
<path fill-rule="evenodd" clip-rule="evenodd" d="M333.695 5294.12C375.99 5277.28 392.56 5227.92 396.374 5178.76C400.344 5127.58 390.294 5068.55 355.178 5017.18C321.187 4967.46 266.649 4930.94 213.657 4911.47C167.813 4894.63 128.295 4909.69 88.5256 4919.24C57.3797 4926.71 33.4049 4942.76 9.10891 4960.56C-18.4187 4980.73 -59.2922 4991.73 -62.2833 5029.75C-65.2985 5068.07 -29.393 5109.55 -5.72885 5149.14C17.9957 5188.83 35.6085 5237.19 75.3387 5260C114.775 5282.65 149.23 5255.87 189.391 5261.17C238.031 5267.6 293.944 5309.95 333.695 5294.12Z" stroke="white" stroke-opacity="0.11" stroke-width="2"/>
</g>
<g clip-path="url(#clip1_342_28)">
<path fill-rule="evenodd" clip-rule="evenodd" d="M1759.07 5260.04C1774.83 5228.52 1758.97 5191.47 1735.85 5161.1C1711.78 5129.49 1675.56 5100.56 1628.81 5088.98C1583.55 5077.77 1533.23 5084.77 1492.59 5100.82C1457.43 5114.71 1442.36 5143.77 1424.3 5169.77C1410.16 5190.14 1404.58 5211.76 1399.71 5234.56C1394.2 5260.4 1376.26 5287.81 1394.11 5311.31C1412.11 5335 1454.23 5340.47 1488.29 5351.15C1522.45 5361.86 1557.54 5380.72 1592.24 5373.43C1626.69 5366.19 1632.8 5332.97 1658.73 5315.35C1690.14 5294 1744.26 5289.66 1759.07 5260.04Z" stroke="white" stroke-opacity="0.11" stroke-width="2"/>
<path fill-rule="evenodd" clip-rule="evenodd" d="M1804.59 5220.67C1823.23 5186.25 1803.98 5145.54 1776.07 5112.1C1747.02 5077.29 1703.45 5045.34 1647.39 5032.3C1593.13 5019.69 1532.93 5026.99 1484.39 5044.29C1442.39 5059.26 1424.56 5090.99 1403.13 5119.35C1386.34 5141.56 1379.81 5165.21 1374.16 5190.15C1367.75 5218.42 1346.46 5248.33 1368.01 5274.21C1389.73 5300.3 1440.19 5306.59 1481.06 5318.53C1522.03 5330.51 1564.17 5351.44 1605.67 5343.7C1646.86 5336.02 1653.94 5299.67 1684.86 5280.54C1722.31 5257.38 1787.07 5253.02 1804.59 5220.67Z" stroke="white" stroke-opacity="0.11" stroke-width="2"/>
<path fill-rule="evenodd" clip-rule="evenodd" d="M1696.77 5250.43C1708.77 5226.43 1696.7 5198.22 1679.09 5175.1C1660.76 5151.02 1633.18 5129 1597.59 5120.18C1563.13 5111.64 1524.81 5116.97 1493.87 5129.2C1467.1 5139.78 1455.62 5161.9 1441.87 5181.7C1431.1 5197.21 1426.85 5213.67 1423.15 5231.03C1418.95 5250.7 1405.29 5271.58 1418.89 5289.47C1432.59 5307.51 1464.66 5311.67 1490.6 5319.8C1516.6 5327.96 1543.32 5342.32 1569.75 5336.77C1595.98 5331.26 1600.63 5305.96 1620.37 5292.54C1644.29 5276.29 1685.5 5272.98 1696.77 5250.43Z" stroke="white" stroke-opacity="0.11" stroke-width="2"/>
<path fill-rule="evenodd" clip-rule="evenodd" d="M1829.69 5239.91C1851.77 5195.76 1829.55 5143.86 1797.16 5101.32C1763.43 5057.03 1712.7 5016.52 1647.21 5000.29C1583.82 4984.58 1513.32 4994.39 1456.39 5016.88C1407.14 5036.34 1386.03 5077.05 1360.73 5113.47C1340.92 5142 1333.1 5172.28 1326.28 5204.23C1318.56 5240.42 1293.43 5278.82 1318.44 5311.74C1343.66 5344.93 1402.65 5352.58 1450.37 5367.54C1498.22 5382.55 1547.37 5408.97 1595.99 5398.76C1644.25 5388.62 1652.8 5342.08 1689.13 5317.39C1733.13 5287.49 1808.95 5281.41 1829.69 5239.91Z" stroke="white" stroke-opacity="0.11" stroke-width="2"/>
<path fill-rule="evenodd" clip-rule="evenodd" d="M1953.08 5252.48C1981.52 5195.58 1952.9 5128.7 1911.16 5073.89C1867.7 5016.83 1802.33 4964.62 1717.94 4943.71C1636.26 4923.47 1545.42 4936.11 1472.06 4965.09C1408.6 4990.16 1381.4 5042.62 1348.8 5089.55C1323.27 5126.31 1313.19 5165.33 1304.41 5206.49C1294.47 5253.13 1262.08 5302.61 1294.31 5345.03C1326.8 5387.8 1402.81 5397.66 1464.31 5416.94C1525.96 5436.26 1589.3 5470.31 1651.94 5457.15C1714.12 5444.09 1725.15 5384.13 1771.96 5352.31C1828.65 5313.78 1926.34 5305.95 1953.08 5252.48Z" stroke="white" stroke-opacity="0.11" stroke-width="2"/>
</g>
<ellipse cx="110.891" cy="99.2695" rx="110.891" ry="99.2695" transform="matrix(0.099282 0.995059 -0.992252 0.124238 503.113 1510.2)" fill="url(#paint0_radial_342_28)" fill-opacity="0.3"/>
<ellipse cx="99.4733" cy="110.708" rx="99.4733" ry="110.708" transform="matrix(0.982076 0.188486 -0.151183 0.988506 974.961 2841.96)" fill="url(#paint1_radial_342_28)" fill-opacity="0.4"/>
<ellipse cx="129.31" cy="143.914" rx="129.31" ry="143.914" transform="matrix(0.982076 0.188486 -0.151183 0.988506 1151.31 3440.94)" fill="url(#paint2_radial_342_28)" fill-opacity="0.1"/>
<ellipse cx="105.096" cy="94.7083" rx="105.096" ry="94.7083" transform="matrix(0.18226 -0.98325 0.973996 0.226567 364.002 4170.34)" fill="url(#paint3_radial_342_28)" fill-opacity="0.4"/>
<ellipse cx="22.3045" cy="24.962" rx="22.3045" ry="24.962" transform="matrix(-0.997355 0.0726782 -0.0579711 -0.998318 1286.75 4118.64)" fill="url(#paint4_radial_342_28)" fill-opacity="0.4"/>
<ellipse cx="58.2608" cy="65.2023" rx="58.2608" ry="65.2023" transform="matrix(-0.997355 0.0726782 -0.0579711 -0.998318 215.099 4481.1)" fill="url(#paint5_radial_342_28)" fill-opacity="0.4"/>
<ellipse cx="86.4192" cy="77.3618" rx="86.4192" ry="77.3618" transform="matrix(-0.0990937 -0.995078 0.992282 -0.124004 1369.87 4790.46)" fill="url(#paint6_radial_342_28)" fill-opacity="0.4"/>
<ellipse cx="22.3224" cy="24.946" rx="22.3224" ry="24.946" transform="matrix(0.993389 0.114793 -0.0916963 0.995787 1052.72 2628.36)" fill="url(#paint7_radial_342_28)" fill-opacity="0.4"/>
<ellipse cx="22.3045" cy="24.962" rx="22.3045" ry="24.962" transform="matrix(-0.997355 0.0726782 -0.0579711 -0.998318 1048.17 1513.86)" fill="url(#paint8_radial_342_28)" fill-opacity="0.4"/>
<ellipse cx="22.4606" cy="24.8216" rx="22.4606" ry="24.8216" transform="matrix(0.962593 0.270951 -0.218865 0.975755 243.448 465.901)" fill="url(#paint9_radial_342_28)" fill-opacity="0.4"/>
<ellipse cx="135.78" cy="151.958" rx="135.78" ry="151.958" transform="matrix(-0.997355 0.0726782 -0.0579711 -0.998318 691.056 3360.16)" fill="url(#paint10_radial_342_28)" fill-opacity="0.4"/>
<ellipse cx="325.409" cy="934.419" rx="163.143" ry="182.757" fill="url(#paint11_radial_342_28)" fill-opacity="0.4"/>
<ellipse cx="103.584" cy="115.79" rx="103.584" ry="115.79" transform="matrix(-0.994156 -0.107951 0.0862063 -0.996277 608.77 629.422)" fill="url(#paint12_radial_342_28)" fill-opacity="0.4"/>
<ellipse cx="56.7511" cy="52.5286" rx="56.7511" ry="52.5286" transform="matrix(0.361502 0.932371 -0.899211 0.437516 1445.22 0)" fill="url(#paint13_radial_342_28)" fill-opacity="0.4"/>
<ellipse cx="110.891" cy="99.2695" rx="110.891" ry="99.2695" transform="matrix(0.099282 0.995059 -0.992252 0.124238 1552.74 1142.91)" fill="url(#paint14_radial_342_28)" fill-opacity="0.4"/>
<ellipse cx="73.7901" cy="81.5488" rx="73.7901" ry="81.5488" transform="matrix(-0.962668 0.270685 -0.218645 -0.975804 365.595 2598.06)" fill="url(#paint15_radial_342_28)" fill-opacity="0.4"/>
<ellipse cx="1016.14" cy="2018.68" rx="172.353" ry="193.074" fill="url(#paint16_radial_342_28)" fill-opacity="0.4"/>
<defs>
<radialGradient id="paint0_radial_342_28" cx="0" cy="0" r="1" gradientUnits="userSpaceOnUse" gradientTransform="translate(144.75 149.788) rotate(-128.778) scale(178.856 184.229)">
<stop stop-color="#FFAC71"/>
<stop offset="1" stop-color="#FFAC71" stop-opacity="0"/>
</radialGradient>
<radialGradient id="paint1_radial_342_28" cx="0" cy="0" r="1" gradientUnits="userSpaceOnUse" gradientTransform="translate(129.847 167.048) rotate(-122.871) scale(185.14 178.047)">
<stop stop-color="#FFAC71"/>
<stop offset="1" stop-color="#FFAC71" stop-opacity="0"/>
</radialGradient>
<radialGradient id="paint2_radial_342_28" cx="0" cy="0" r="1" gradientUnits="userSpaceOnUse" gradientTransform="translate(168.794 217.153) rotate(-122.871) scale(240.672 231.451)">
<stop stop-color="#FFAC71"/>
<stop offset="1" stop-color="#FFAC71" stop-opacity="0"/>
</radialGradient>
<radialGradient id="paint3_radial_342_28" cx="0" cy="0" r="1" gradientUnits="userSpaceOnUse" gradientTransform="translate(137.186 142.906) rotate(-128.593) scale(170.197 175.055)">
<stop stop-color="#FFAC71"/>
<stop offset="1" stop-color="#FFAC71" stop-opacity="0"/>
</radialGradient>
<radialGradient id="paint4_radial_342_28" cx="0" cy="0" r="1" gradientUnits="userSpaceOnUse" gradientTransform="translate(29.115 37.6653) rotate(-122.726) scale(41.6768 39.9879)">
<stop stop-color="#FFAC71"/>
<stop offset="1" stop-color="#FFAC71" stop-opacity="0"/>
</radialGradient>
<radialGradient id="paint5_radial_342_28" cx="0" cy="0" r="1" gradientUnits="userSpaceOnUse" gradientTransform="translate(76.0504 98.3842) rotate(-122.726) scale(108.862 104.451)">
<stop stop-color="#FFAC71"/>
<stop offset="1" stop-color="#FFAC71" stop-opacity="0"/>
</radialGradient>
<radialGradient id="paint6_radial_342_28" cx="0" cy="0" r="1" gradientUnits="userSpaceOnUse" gradientTransform="translate(112.807 116.732) rotate(-128.779) scale(139.385 143.572)">
<stop stop-color="#FFAC71"/>
<stop offset="1" stop-color="#FFAC71" stop-opacity="0"/>
</radialGradient>
<radialGradient id="paint7_radial_342_28" cx="0" cy="0" r="1" gradientUnits="userSpaceOnUse" gradientTransform="translate(29.1384 37.6411) rotate(-122.764) scale(41.6676 40.0031)">
<stop stop-color="#FFAC71"/>
<stop offset="1" stop-color="#FFAC71" stop-opacity="0"/>
</radialGradient>
<radialGradient id="paint8_radial_342_28" cx="0" cy="0" r="1" gradientUnits="userSpaceOnUse" gradientTransform="translate(29.115 37.6653) rotate(-122.726) scale(41.6768 39.9879)">
<stop stop-color="#FFAC71"/>
<stop offset="1" stop-color="#FFAC71" stop-opacity="0"/>
</radialGradient>
<radialGradient id="paint9_radial_342_28" cx="0" cy="0" r="1" gradientUnits="userSpaceOnUse" gradientTransform="translate(29.3188 37.4535) rotate(-123.056) scale(41.5968 40.1183)">
<stop stop-color="#FFAC71"/>
<stop offset="1" stop-color="#FFAC71" stop-opacity="0"/>
</radialGradient>
<radialGradient id="paint10_radial_342_28" cx="0" cy="0" r="1" gradientUnits="userSpaceOnUse" gradientTransform="translate(177.24 229.29) rotate(-122.726) scale(253.71 243.43)">
<stop stop-color="#FFAC71"/>
<stop offset="1" stop-color="#FFAC71" stop-opacity="0"/>
</radialGradient>
<radialGradient id="paint11_radial_342_28" cx="0" cy="0" r="1" gradientUnits="userSpaceOnUse" gradientTransform="translate(375.224 1027.43) rotate(-122.701) scale(305.047 292.568)">
<stop stop-color="#FFAC71"/>
<stop offset="1" stop-color="#FFAC71" stop-opacity="0"/>
</radialGradient>
<radialGradient id="paint12_radial_342_28" cx="0" cy="0" r="1" gradientUnits="userSpaceOnUse" gradientTransform="translate(135.213 174.717) rotate(-122.757) scale(193.391 185.644)">
<stop stop-color="#FFAC71"/>
<stop offset="1" stop-color="#FFAC71" stop-opacity="0"/>
</radialGradient>
<radialGradient id="paint13_radial_342_28" cx="0" cy="0" r="1" gradientUnits="userSpaceOnUse" gradientTransform="translate(74.0796 79.2607) rotate(-127.848) scale(93.4353 95.5014)">
<stop stop-color="#FFAC71"/>
<stop offset="1" stop-color="#FFAC71" stop-opacity="0"/>
</radialGradient>
<radialGradient id="paint14_radial_342_28" cx="0" cy="0" r="1" gradientUnits="userSpaceOnUse" gradientTransform="translate(144.75 149.788) rotate(-128.778) scale(178.856 184.229)">
<stop stop-color="#FFAC71"/>
<stop offset="1" stop-color="#FFAC71" stop-opacity="0"/>
</radialGradient>
<radialGradient id="paint15_radial_342_28" cx="0" cy="0" r="1" gradientUnits="userSpaceOnUse" gradientTransform="translate(96.3214 123.049) rotate(-123.055) scale(136.661 131.802)">
<stop stop-color="#FFAC71"/>
<stop offset="1" stop-color="#FFAC71" stop-opacity="0"/>
</radialGradient>
<radialGradient id="paint16_radial_342_28" cx="0" cy="0" r="1" gradientUnits="userSpaceOnUse" gradientTransform="translate(1068.76 2116.94) rotate(-122.701) scale(322.267 309.084)">
<stop stop-color="#FFAC71"/>
<stop offset="1" stop-color="#FFAC71" stop-opacity="0"/>
</radialGradient>
<clipPath id="clip0_342_28">
<rect width="429.785" height="269.223" fill="white" transform="translate(0 4971.78)"/>
</clipPath>
<clipPath id="clip1_342_28">
<rect width="733.266" height="269.223" fill="white" transform="translate(1186.73 4971.78)"/>
</clipPath>
</defs>
</svg>
